<?xml version="1.0" encoding="utf-8"?>
<!-- Generator: Adobe Illustrator 24.0.2, SVG Export Plug-In . SVG Version: 6.00 Build 0)  -->
<svg version="1.1" id="Layer_1" xmlns="http://www.w3.org/2000/svg" xmlns:xlink="http://www.w3.org/1999/xlink" x="0px" y="0px"
	 viewBox="0 0 841.89 595.28" style="enable-background:new 0 0 841.89 595.28;" xml:space="preserve">
<style type="text/css">
	.st0{fill:#C12026;}
	.st1{fill:#212529;}
	.st2{fill:#FFFFFF;}
	.st3{fill:#CC3333;}
	.st4{enable-background:new    ;}
	.st5{fill:#8D8D8D;}
	.st6{fill:#878787;}
	.st7{fill:#A2A2A2;}
	.st8{fill:#6D6E71;}
	.st9{clip-path:url(#SVGID_2_);enable-background:new    ;}
	.st10{clip-path:url(#SVGID_4_);enable-background:new    ;}
	.st11{clip-path:url(#SVGID_6_);enable-background:new    ;}
	.st12{clip-path:url(#SVGID_8_);enable-background:new    ;}
	.st13{clip-path:url(#SVGID_10_);enable-background:new    ;}
	.st14{clip-path:url(#SVGID_12_);enable-background:new    ;}
	.st15{clip-path:url(#SVGID_14_);enable-background:new    ;}
	.st16{clip-path:url(#SVGID_16_);enable-background:new    ;}
	.st17{clip-path:url(#SVGID_18_);enable-background:new    ;}
	.st18{clip-path:url(#SVGID_20_);enable-background:new    ;}
	.st19{clip-path:url(#SVGID_22_);enable-background:new    ;}
	.st20{clip-path:url(#SVGID_24_);enable-background:new    ;}
	.st21{fill:#FFFFFF;stroke:#000000;stroke-miterlimit:10;}
	.st22{font-family:'TwCenMT-CondensedExtraBold';}
	.st23{font-size:52.581px;}
</style>
<rect x="-156.37" y="92.78" class="st0" width="64" height="58.67"/>
<rect x="-149.26" y="202.41" class="st1" width="69.93" height="56.89"/>
<rect x="-142.74" y="297.64" class="st2" width="63.41" height="63.41"/>
<g>
	<g>
		<path class="st3" d="M142.21,174.49h83.76v222.72h28.01v65.17h-28.01v71.64h-74.6v-71.64H36.1v-58.44L142.21,174.49z
			 M150.29,283.02L98.04,397.21h53.32V283.02H150.29z"/>
		<path class="st3" d="M418.66,165.06c38.96,0,68.54,16.07,88.74,48.21c20.2,32.14,30.3,79.45,30.3,141.93
			c0,60.86-10.28,107.46-30.84,139.77c-20.56,32.32-49.96,48.48-88.2,48.48c-36.27,0-65.13-15.12-86.58-45.38
			c-21.46-30.25-32.18-79.13-32.18-146.64c0-59.25,10.32-105.12,30.97-137.62c20.64-32.49,49.55-48.75,86.72-48.75H418.66z
			 M378.26,350.89c0,76.85,13.29,115.26,39.86,115.26c14.36,0,24.73-8.48,31.11-25.45c6.37-16.97,9.56-43.94,9.56-80.93
			c0-40.75-3.19-70.42-9.56-89.01c-6.37-18.58-16.92-27.87-31.64-27.87C391.36,242.89,378.26,278.89,378.26,350.89z"/>
		<path class="st3" d="M694.02,174.49h83.76v222.72h28.01v65.17h-28.01v71.64h-74.6v-71.64H587.91v-58.44L694.02,174.49z
			 M702.1,283.02l-52.25,114.19h53.32V283.02H702.1z"/>
	</g>
	<g>
		<g>
			<g class="st4">
				<g>
					<polygon class="st5" points="455.4,145.07 459.45,142.56 473.57,146.5 469.53,149.01 					"/>
				</g>
				<g>
					<polygon class="st6" points="469.53,149.01 473.57,146.5 365.52,540.47 361.48,542.98 					"/>
				</g>
				<g>
					<polygon class="st7" points="455.4,145.07 469.53,149.01 361.48,542.98 347.36,539.04 					"/>
				</g>
			</g>
		</g>
	</g>
	<path class="st8" d="M567.61,236.17l-217.91-63.78c-7.07-2.07-11.12-9.47-9.05-16.54l32.27-110.26c2.07-7.07,9.47-11.12,16.54-9.05
		l217.91,63.78c7.07,2.07,11.12,9.47,9.05,16.54l-32.27,110.26C582.08,234.19,574.67,238.24,567.61,236.17z"/>
	<g>
		<g>
			<g class="st4">
				<g class="st4">
					<defs>
						<path id="SVGID_1_" class="st4" d="M330.61,163.47l3.95-3.13c-0.93,3.29-0.51,6.75,1.16,9.74c1.67,3,4.41,5.16,7.69,6.1
							l-3.95,3.13c-3.28-0.94-6.02-3.1-7.69-6.1C330.1,170.21,329.68,166.76,330.61,163.47z"/>
					</defs>
					<clipPath id="SVGID_2_">
						<use xlink:href="#SVGID_1_"  style="overflow:visible;"/>
					</clipPath>
					<g class="st9">
						<path d="M330.61,163.47l3.95-3.13c-0.02,0.09-0.05,0.17-0.07,0.26l-3.95,3.13C330.56,163.64,330.58,163.55,330.61,163.47"/>
						<path d="M330.54,163.72l3.95-3.13c-0.13,0.48-0.22,0.97-0.29,1.46l-3.95,3.13C330.32,164.69,330.41,164.2,330.54,163.72"/>
						<path d="M330.25,165.18l3.95-3.13c-0.07,0.47-0.11,0.95-0.12,1.42l-3.95,3.13C330.14,166.13,330.18,165.65,330.25,165.18"/>
						<path d="M330.13,166.6l3.95-3.13c-0.01,0.49,0,0.97,0.04,1.45l-3.95,3.13C330.13,167.57,330.12,167.09,330.13,166.6"/>
						<path d="M330.17,168.05l3.95-3.13c0.05,0.53,0.13,1.05,0.24,1.57l-3.95,3.13C330.3,169.1,330.22,168.58,330.17,168.05"/>
						<path d="M330.41,169.62l3.95-3.13c0.14,0.63,0.32,1.26,0.55,1.87l-3.95,3.13C330.73,170.88,330.55,170.25,330.41,169.62"/>
						<path d="M330.96,171.49l3.95-3.13c0.22,0.59,0.49,1.16,0.8,1.72c1.11,2,2.7,3.62,4.6,4.76l-3.95,3.13
							c-1.9-1.14-3.49-2.77-4.6-4.76C331.46,172.65,331.19,172.07,330.96,171.49"/>
						<path d="M336.37,177.97l3.95-3.13c0.56,0.33,1.14,0.63,1.75,0.88l-3.95,3.13C337.51,178.59,336.93,178.3,336.37,177.97"/>
						<path d="M338.12,178.84l3.95-3.13c0.43,0.18,0.88,0.33,1.34,0.46l-3.95,3.13C339,179.18,338.55,179.02,338.12,178.84"/>
					</g>
				</g>
				<g>
					<polygon points="361.63,53.26 365.58,50.12 334.56,160.33 330.61,163.47 					"/>
				</g>
				<g class="st4">
					<defs>
						<path id="SVGID_3_" class="st4" d="M365.96,46.75l3.95-3.13c-2.02,1.6-3.58,3.84-4.33,6.51l-3.95,3.13
							C362.38,50.58,363.94,48.35,365.96,46.75z"/>
					</defs>
					<clipPath id="SVGID_4_">
						<use xlink:href="#SVGID_3_"  style="overflow:visible;"/>
					</clipPath>
					<g class="st10">
						<path d="M365.96,46.75l3.95-3.13c-1.21,0.96-2.25,2.14-3.05,3.51l-3.95,3.13C363.71,48.88,364.75,47.7,365.96,46.75"/>
						<path d="M362.91,50.25l3.95-3.13c-0.32,0.55-0.6,1.12-0.84,1.72l-3.95,3.13C362.31,51.37,362.59,50.8,362.91,50.25"/>
						<path d="M362.06,51.98l3.95-3.13c-0.17,0.41-0.31,0.84-0.43,1.28l-3.95,3.13C361.75,52.82,361.9,52.39,362.06,51.98"/>
					</g>
				</g>
				<g class="st4">
					<defs>
						<path id="SVGID_5_" class="st4" d="M365.96,46.75l3.95-3.13c2.21-1.75,4.97-2.75,7.85-2.77l-3.95,3.13
							C370.93,43.99,368.17,45,365.96,46.75z"/>
					</defs>
					<clipPath id="SVGID_6_">
						<use xlink:href="#SVGID_5_"  style="overflow:visible;"/>
					</clipPath>
					<g class="st11">
						<path d="M365.96,46.75l3.95-3.13c1.05-0.83,2.23-1.5,3.48-1.96l-3.95,3.13C368.19,45.25,367.01,45.91,365.96,46.75"/>
						<path d="M369.44,44.78l3.95-3.13c0.61-0.23,1.23-0.41,1.87-0.54l-3.95,3.13C370.68,44.37,370.05,44.55,369.44,44.78"/>
						<path d="M371.32,44.24l3.95-3.13c0.52-0.11,1.04-0.18,1.57-0.22l-3.95,3.13C372.36,44.06,371.83,44.13,371.32,44.24"/>
						<path d="M372.89,44.02l3.95-3.13c0.31-0.02,0.62-0.04,0.93-0.04l-3.95,3.13C373.5,43.98,373.2,43.99,372.89,44.02"/>
					</g>
				</g>
				<g class="st4">
					<defs>
						<path id="SVGID_7_" class="st4" d="M373.82,43.98l3.95-3.13c1.19-0.01,2.4,0.15,3.59,0.5l-3.95,3.13
							C376.21,44.13,375,43.97,373.82,43.98z"/>
					</defs>
					<clipPath id="SVGID_8_">
						<use xlink:href="#SVGID_7_"  style="overflow:visible;"/>
					</clipPath>
					<g class="st12">
						<path d="M373.82,43.98l3.95-3.13c0.17,0,0.35,0,0.52,0.01l-3.95,3.13C374.17,43.98,373.99,43.98,373.82,43.98"/>
						<path d="M374.34,43.99l3.95-3.13c0.47,0.02,0.94,0.06,1.41,0.13l-3.95,3.13C375.28,44.05,374.81,44,374.34,43.99"/>
						<path d="M375.75,44.12l3.95-3.13c0.48,0.07,0.96,0.17,1.44,0.3l-3.95,3.13C376.72,44.29,376.23,44.19,375.75,44.12"/>
						<path d="M377.2,44.42l3.95-3.13c0.07,0.02,0.14,0.04,0.21,0.06l-3.95,3.13C377.34,44.46,377.27,44.44,377.2,44.42"/>
					</g>
				</g>
				<g class="st4">
					<defs>
						<path id="SVGID_9_" class="st4" d="M365.34,45.96l3.95-3.13c2.38-1.89,5.36-2.97,8.47-2.99c1.28-0.01,2.58,0.17,3.87,0.54
							l-3.95,3.13c-1.29-0.37-2.59-0.54-3.87-0.54C370.7,42.99,367.72,44.08,365.34,45.96z"/>
					</defs>
					<clipPath id="SVGID_10_">
						<use xlink:href="#SVGID_9_"  style="overflow:visible;"/>
					</clipPath>
					<g class="st13">
						<path d="M365.34,45.96l3.95-3.13c1.13-0.9,2.4-1.61,3.76-2.12l-3.95,3.13C367.74,44.35,366.47,45.07,365.34,45.96"/>
						<path d="M369.09,43.84l3.95-3.13c0.66-0.24,1.33-0.44,2.02-0.58l-3.95,3.13C370.42,43.4,369.75,43.6,369.09,43.84"/>
						<path d="M371.11,43.26l3.95-3.13c0.56-0.12,1.12-0.2,1.7-0.24l-3.95,3.13C372.24,43.06,371.67,43.15,371.11,43.26"/>
						<path d="M372.81,43.02l3.95-3.13c0.33-0.03,0.67-0.04,1-0.04c0.19,0,0.38,0,0.57,0.01l-3.95,3.13
							c-0.19-0.01-0.38-0.01-0.57-0.01C373.48,42.98,373.14,42.99,372.81,43.02"/>
						<path d="M374.38,42.99l3.95-3.13c0.51,0.02,1.01,0.06,1.52,0.14l-3.95,3.13C375.39,43.05,374.89,43,374.38,42.99"/>
						<path d="M375.9,43.13l3.95-3.13c0.52,0.08,1.04,0.19,1.56,0.32l-3.95,3.13C376.94,43.31,376.42,43.2,375.9,43.13"/>
						<path d="M377.46,43.45l3.95-3.13c0.07,0.02,0.15,0.04,0.22,0.06l-3.95,3.13C377.61,43.49,377.54,43.47,377.46,43.45"/>
					</g>
				</g>
				<g>
					<polygon points="339.46,179.31 343.41,176.17 561.3,238.64 557.35,241.77 					"/>
				</g>
				<g class="st4">
					<defs>
						<path id="SVGID_11_" class="st4" d="M572.75,236.37l-3.95,3.13c-2.21,1.75-4.97,2.75-7.85,2.77c-1.19,0.01-2.4-0.15-3.59-0.5
							l3.95-3.13c1.2,0.34,2.41,0.5,3.59,0.5C567.78,239.12,570.54,238.12,572.75,236.37z"/>
					</defs>
					<clipPath id="SVGID_12_">
						<use xlink:href="#SVGID_11_"  style="overflow:visible;"/>
					</clipPath>
					<g class="st14">
						<path d="M557.35,241.77l3.95-3.13c0.07,0.02,0.14,0.04,0.22,0.06l-3.95,3.13C557.49,241.81,557.42,241.79,557.35,241.77"/>
						<path d="M557.56,241.83l3.95-3.13c0.48,0.13,0.96,0.23,1.44,0.3l-3.95,3.13C558.52,242.06,558.04,241.96,557.56,241.83"/>
						<path d="M559,242.13l3.95-3.13c0.47,0.07,0.94,0.11,1.41,0.13l-3.95,3.13C559.95,242.25,559.48,242.2,559,242.13"/>
						<path d="M560.42,242.26l3.95-3.13c0.18,0.01,0.35,0.01,0.53,0.01c0.31,0,0.62-0.01,0.93-0.04l-3.95,3.13
							c-0.31,0.02-0.62,0.04-0.93,0.04C560.77,242.27,560.59,242.27,560.42,242.26"/>
						<path d="M561.87,242.23l3.95-3.13c0.53-0.04,1.06-0.12,1.57-0.22l-3.95,3.13C562.92,242.11,562.4,242.19,561.87,242.23"/>
						<path d="M563.44,242.01l3.95-3.13c0.64-0.13,1.27-0.31,1.87-0.54l-3.95,3.13C564.71,241.69,564.08,241.87,563.44,242.01"/>
						<path d="M565.31,241.47l3.95-3.13c1.26-0.47,2.43-1.13,3.48-1.96l-3.95,3.13C567.74,240.34,566.57,241,565.31,241.47"/>
					</g>
				</g>
				<g class="st4">
					<defs>
						<path id="SVGID_13_" class="st4" d="M572.75,236.37l-3.95,3.13c2.02-1.6,3.58-3.84,4.33-6.51l3.95-3.13
							C576.33,232.53,574.77,234.76,572.75,236.37z"/>
					</defs>
					<clipPath id="SVGID_14_">
						<use xlink:href="#SVGID_13_"  style="overflow:visible;"/>
					</clipPath>
					<g class="st15">
						<path d="M573.13,232.99l3.95-3.13c-0.12,0.44-0.27,0.87-0.43,1.28l-3.95,3.13C572.86,233.86,573,233.43,573.13,232.99"/>
						<path d="M572.69,234.27l3.95-3.13c-0.24,0.6-0.52,1.18-0.84,1.72l-3.95,3.13C572.17,235.45,572.45,234.88,572.69,234.27"/>
						<path d="M571.85,236l3.95-3.13c-0.8,1.37-1.84,2.55-3.05,3.51l-3.95,3.13C570,238.55,571.04,237.36,571.85,236"/>
					</g>
				</g>
				<g class="st4">
					<defs>
						<path id="SVGID_15_" class="st4" d="M573.37,237.15l-3.95,3.13c2.18-1.73,3.86-4.13,4.67-7.01l3.95-3.13
							C577.23,233.02,575.55,235.42,573.37,237.15z"/>
					</defs>
					<clipPath id="SVGID_16_">
						<use xlink:href="#SVGID_15_"  style="overflow:visible;"/>
					</clipPath>
					<g class="st16">
						<path d="M574.09,233.27l3.95-3.13c-0.13,0.47-0.29,0.93-0.47,1.38l-3.95,3.13C573.8,234.2,573.96,233.74,574.09,233.27"/>
						<path d="M573.62,234.65l3.95-3.13c-0.26,0.65-0.56,1.27-0.91,1.86l-3.95,3.13C573.06,235.92,573.36,235.3,573.62,234.65"/>
						<path d="M572.71,236.51l3.95-3.13c-0.87,1.47-1.99,2.75-3.29,3.78l-3.95,3.13C570.72,239.25,571.85,237.98,572.71,236.51"/>
					</g>
				</g>
				<g>
					<polygon points="604.15,122.77 608.1,119.64 577.08,229.86 573.13,232.99 					"/>
				</g>
				<g>
					<polygon points="605.1,123.06 609.05,119.92 578.04,230.14 574.09,233.27 					"/>
				</g>
				<g>
					<polygon points="377.41,44.48 381.36,41.34 599.25,103.8 595.3,106.93 					"/>
				</g>
				<g>
					<polygon points="377.69,43.51 381.64,40.38 599.52,102.84 595.57,105.98 					"/>
				</g>
				<g class="st4">
					<defs>
						<path id="SVGID_17_" class="st4" d="M608.1,119.64c-0.1,0.15-0.32,0.26-0.46,0.37c-0.15,0.12-0.34,0.27-0.49,0.39
							c-0.34,0.27-0.68,0.54-1.03,0.81c-0.66,0.52-1.32,1.05-1.98,1.57c0.93-3.28,0.51-6.74-1.16-9.74
							c1.32-1.04,2.64-2.09,3.95-3.14c0,0,0,0,0,0C608.61,112.9,609.03,116.36,608.1,119.64z"/>
					</defs>
					<clipPath id="SVGID_18_">
						<use xlink:href="#SVGID_17_"  style="overflow:visible;"/>
					</clipPath>
					<g class="st17">
						<path d="M598.38,108.27l3.95-3.13c1.91,1.14,3.49,2.77,4.61,4.76c0.31,0.56,0.58,1.13,0.8,1.72l-3.95,3.13
							c-0.22-0.58-0.49-1.16-0.8-1.72C601.87,111.04,600.29,109.41,598.38,108.27"/>
						<path d="M603.79,114.75l3.95-3.13c0.23,0.61,0.42,1.24,0.56,1.87l-3.95,3.13C604.21,115.99,604.02,115.36,603.79,114.75"/>
						<path d="M604.35,116.62l3.95-3.13c0.11,0.52,0.19,1.04,0.24,1.57l-3.95,3.13C604.54,117.67,604.46,117.14,604.35,116.62"/>
						<path d="M604.58,118.19l3.95-3.13c0.04,0.48,0.06,0.97,0.04,1.45l-3.95,3.13C604.64,119.16,604.63,118.67,604.58,118.19"/>
						<path d="M604.63,119.64l3.95-3.13c-0.01,0.47-0.05,0.95-0.12,1.42l-3.95,3.13C604.57,120.59,604.61,120.12,604.63,119.64"/>
						<path d="M604.51,121.06l3.95-3.13c-0.07,0.49-0.16,0.97-0.29,1.45l-3.95,3.13C604.34,122.03,604.44,121.55,604.51,121.06"/>
						<path d="M604.22,122.51l3.95-3.13c-0.02,0.09-0.05,0.17-0.07,0.26l-3.95,3.13C604.17,122.69,604.2,122.6,604.22,122.51"/>
					</g>
				</g>
				<g class="st4">
					<defs>
						<path id="SVGID_19_" class="st4" d="M599.25,103.8c3.28,0.94,6.01,3.11,7.69,6.1c-1.32,1.04-2.64,2.09-3.95,3.13
							c-1.67-2.99-4.4-5.16-7.69-6.1C596.48,105.99,598.06,104.74,599.25,103.8z"/>
					</defs>
					<clipPath id="SVGID_20_">
						<use xlink:href="#SVGID_19_"  style="overflow:visible;"/>
					</clipPath>
					<g class="st18">
						<path d="M595.3,106.93l3.95-3.13c0.46,0.13,0.9,0.29,1.33,0.46l-3.95,3.13C596.2,107.22,595.75,107.06,595.3,106.93"/>
						<path d="M596.63,107.39l3.95-3.13c0.61,0.25,1.19,0.54,1.75,0.88l-3.95,3.13C597.82,107.93,597.24,107.64,596.63,107.39"/>
						<path d="M598.38,108.27l3.95-3.13c1.91,1.14,3.49,2.77,4.61,4.76c0.31,0.56,0.58,1.13,0.8,1.72l-3.95,3.13
							c-0.22-0.58-0.49-1.16-0.8-1.72C601.87,111.04,600.29,109.41,598.38,108.27"/>
					</g>
				</g>
				<g>
					<path d="M373.82,43.98c1.19-0.01,2.4,0.15,3.59,0.5l217.89,62.46c3.28,0.94,6.02,3.11,7.69,6.1c1.67,3,2.09,6.46,1.16,9.74
						l-31.02,110.22c-1.57,5.59-6.65,9.25-12.19,9.28c-1.19,0.01-2.4-0.15-3.59-0.5l-217.89-62.47c-3.28-0.94-6.02-3.1-7.69-6.1
						c-1.67-2.99-2.09-6.45-1.16-9.74l31.02-110.21C363.2,47.66,368.28,44.01,373.82,43.98z"/>
				</g>
				<g class="st4">
					<defs>
						<path id="SVGID_21_" class="st4" d="M603.86,112.55l3.95-3.13c1.8,3.22,2.24,6.96,1.24,10.5l-3.95,3.13
							C606.11,119.51,605.66,115.78,603.86,112.55z"/>
					</defs>
					<clipPath id="SVGID_22_">
						<use xlink:href="#SVGID_21_"  style="overflow:visible;"/>
					</clipPath>
					<g class="st19">
						<path d="M603.86,112.55l3.95-3.13c0.33,0.6,0.62,1.21,0.86,1.84l-3.95,3.13C604.48,113.77,604.2,113.15,603.86,112.55"/>
						<path d="M604.72,114.39l3.95-3.13c0.25,0.66,0.45,1.33,0.6,2.01l-3.95,3.13C605.17,115.72,604.97,115.05,604.72,114.39"/>
						<path d="M605.32,116.41l3.95-3.13c0.12,0.56,0.21,1.12,0.26,1.69l-3.95,3.13C605.53,117.53,605.44,116.96,605.32,116.41"/>
						<path d="M605.58,118.1l3.95-3.13c0.05,0.52,0.06,1.04,0.05,1.56l-3.95,3.13C605.64,119.14,605.62,118.62,605.58,118.1"/>
						<path d="M605.62,119.66l3.95-3.13c-0.01,0.51-0.06,1.02-0.13,1.53l-3.95,3.13C605.57,120.68,605.61,120.17,605.62,119.66"/>
						<path d="M605.49,121.19l3.95-3.13c-0.07,0.52-0.18,1.05-0.31,1.57l-3.95,3.13C605.32,122.24,605.42,121.72,605.49,121.19"/>
						<path d="M605.18,122.76l3.95-3.13c-0.03,0.1-0.05,0.2-0.08,0.3l-3.95,3.13C605.13,122.96,605.16,122.86,605.18,122.76"/>
					</g>
				</g>
				<g>
					<path d="M603.86,112.55c1.8,3.22,2.24,6.96,1.24,10.5l-31.01,110.22c-1.7,6.02-7.17,9.97-13.14,10
						c-1.28,0.01-2.59-0.17-3.87-0.54l-217.89-62.47c-3.55-1.01-6.49-3.35-8.29-6.57c-1.81-3.22-2.25-6.96-1.25-10.5l31.01-110.22
						c1.7-6.02,7.18-9.96,13.14-10c1.28-0.01,2.58,0.17,3.87,0.54l217.88,62.47C599.11,106.99,602.06,109.33,603.86,112.55z
						 M604.15,122.77c0.93-3.28,0.51-6.74-1.16-9.74c-1.67-2.99-4.41-5.16-7.69-6.1L377.41,44.48c-1.2-0.34-2.41-0.5-3.59-0.5
						c-5.53,0.03-10.61,3.69-12.19,9.28l-31.02,110.21c-0.93,3.29-0.51,6.75,1.16,9.74c1.67,3,4.41,5.16,7.69,6.1l217.89,62.47
						c1.2,0.34,2.41,0.5,3.59,0.5c5.53-0.03,10.61-3.69,12.19-9.28L604.15,122.77"/>
				</g>
				<g class="st4">
					<defs>
						<path id="SVGID_23_" class="st4" d="M595.57,105.98l3.95-3.13c3.55,1.01,6.49,3.35,8.3,6.57l-3.95,3.13
							C602.06,109.33,599.11,106.99,595.57,105.98z"/>
					</defs>
					<clipPath id="SVGID_24_">
						<use xlink:href="#SVGID_23_"  style="overflow:visible;"/>
					</clipPath>
					<g class="st20">
						<path d="M595.57,105.98l3.95-3.13c0.5,0.14,0.98,0.31,1.45,0.5l-3.95,3.13C596.55,106.29,596.06,106.12,595.57,105.98"/>
						<path d="M597.02,106.48l3.95-3.13c0.66,0.27,1.28,0.58,1.88,0.94l-3.95,3.13C598.3,107.06,597.67,106.75,597.02,106.48"/>
						<path d="M598.9,107.42l3.95-3.13c2.05,1.23,3.76,2.98,4.96,5.13l-3.95,3.13C602.66,110.41,600.96,108.65,598.9,107.42"/>
					</g>
				</g>
			</g>
		</g>
	</g>
	<path class="st21" d="M553.69,233.03l-204.67-59.91c-7.07-2.07-11.12-9.47-9.05-16.54l28.52-97.44c2.07-7.07,9.47-11.12,16.54-9.05
		l204.67,59.91c7.07,2.07,11.12,9.47,9.05,16.54l-28.52,97.44C568.16,231.04,560.75,235.1,553.69,233.03z"/>
	<path class="st3" d="M591.14,130.04l-240.87,40.67c-4.77,0.8-9.28-2.41-10.09-7.17l-0.21-1.25c-0.8-4.77,2.41-9.28,7.17-10.09
		l240.87-40.67c4.77-0.8,9.28,2.41,10.09,7.17l0.21,1.25C599.12,124.72,595.91,129.23,591.14,130.04z"/>
	<text transform="matrix(0.9597 0.2809 -0.2809 0.9597 368.2722 128.9518)" class="st22 st23">FESICOMP</text>
	<g>
		<path class="st3" d="M433.87,514.15c-8.4-16.22-17.36-32.22-23.73-49.3c-16.42-5.62-26.49-29.6-30.22-71.92
			c-1.03,0.68-2.28,1.13-3.76,1.24c-15.44,1.12-30.11,12.44-42.29,21.05c-6.33,4.47-12.6,9.03-18.9,13.53
			c-2.6,1.86-5.31,3.73-7.92,5.73c5.35,26.4,13.69,47.59,25.03,63.58c21.45,30.26,50.32,45.38,86.59,45.38
			c9.67,0,18.77-1.04,27.31-3.1C442.58,531.34,438.29,522.68,433.87,514.15z"/>
	</g>
</g>
</svg>
